<?xml version="1.0" encoding="UTF-8" standalone="no"?>
<!-- Created with Inkscape (http://www.inkscape.org/) -->

<svg
   xmlns:dc="http://purl.org/dc/elements/1.1/"
   xmlns:cc="http://creativecommons.org/ns#"
   xmlns:rdf="http://www.w3.org/1999/02/22-rdf-syntax-ns#"
   xmlns:svg="http://www.w3.org/2000/svg"
   xmlns="http://www.w3.org/2000/svg"
   xmlns:sodipodi="http://sodipodi.sourceforge.net/DTD/sodipodi-0.dtd"
   xmlns:inkscape="http://www.inkscape.org/namespaces/inkscape"
   version="1.0"
   width="757.40997"
   height="698.9126"
   viewBox="-62.436768 -27.993164 757.40527 698.9126"
   id="svg2495"
   xml:space="preserve"
   inkscape:version="0.48.4 r9939"
   sodipodi:docname="pfasst_blocks.svg"><metadata
     id="metadata12"><rdf:RDF><cc:Work
         rdf:about=""><dc:format>image/svg+xml</dc:format><dc:type
           rdf:resource="http://purl.org/dc/dcmitype/StillImage" /></cc:Work></rdf:RDF></metadata><sodipodi:namedview
     pagecolor="#ffffff"
     bordercolor="#666666"
     borderopacity="1"
     objecttolerance="10"
     gridtolerance="10"
     guidetolerance="10"
     inkscape:pageopacity="0"
     inkscape:pageshadow="2"
     inkscape:window-width="1600"
     inkscape:window-height="845"
     id="namedview10"
     showgrid="false"
     inkscape:zoom="0.95506763"
     inkscape:cx="330.84803"
     inkscape:cy="354.87514"
     inkscape:window-x="-2"
     inkscape:window-y="-3"
     inkscape:window-maximized="1"
     inkscape:current-layer="svg2495" /><defs
     id="defs2511" /><path
     d="m 293.06849,149.06293 c 0.40739,19.14486 -4.85428,35.23348 14.69745,34.41925 16.11571,-0.72633 8.52153,-5.24225 24.62295,-5.13939 20.58504,1.57792 15.72467,43.85146 -6.19436,39.79415 -11.26418,-1.84562 -33.59432,-12.84242 -29.86697,20.1317 1.71917,12.19126 10.12197,34.28383 10.95,54.19413 0.48589,11.6884 -1.81412,22.5652 -3.53808,31.94191 41.85118,-11.05822 50.13038,-12.31113 89.53301,-3.03999 6.92445,1.629 25.57475,-0.82639 18.73697,-24.44032 -6.66657,-23.02268 -6.0845,-28.86832 4.94273,-36.88404 11.60684,-8.43705 21.83996,-4.78917 34.05985,0.91366 6.46115,4.39348 8.89571,9.35902 6.69593,24.37289 -4.29335,16.97708 -2.5827,17.76362 1.88325,27.83224 6.01181,13.55384 15.96201,16.35217 38.77281,17.98117 9.73211,0.69541 29.58035,1.57171 44.93783,-1.85604 8.48397,-1.89316 16.0927,-4.60003 22.11698,-7.13239 -1.15107,-38.84512 -1.75843,-73.70553 -2.28888,-77.77301 -1.63802,-12.55672 0.95229,-25.15353 -17.11419,-18.70117 -37.45367,17.37165 -35.95274,-62.56191 0,-46.43529 15.21849,7.97843 33.22862,9.49899 27.70455,-27.32778 -2.44376,-16.29374 -17.51535,-58.656259 -17.51535,-58.656259 0,0 -83.37611,9.730519 -110.79436,-11.81251 -11.40513,-8.961098 -7.73921,-24.439793 -2.85115,-33.401157 4.88807,-8.961364 17.10796,-15.885812 16.70058,-27.291209 -1.87036,-52.373373 -77.97882,-51.087571 -74.13415,0.814501 0.81424,10.998013 10.99775,17.107961 15.47843,25.661942 10.0525,19.191291 -5.70761,38.650191 -28.51309,42.362522 -7.76255,1.263524 -38.38364,3.435701 -69.64975,2.981105 -0.77923,-0.01108 -1.55898,-0.02542 -2.33821,-0.0403 -3.43039,20.398855 -7.26235,45.843305 -7.03478,56.529685 z"
     style="fill:#af5a50;stroke:#000000;stroke-width:1.08635448999999995;fill-opacity:0.27450982;fill-rule:nonzero"
     id="path2502"
     inkscape:connector-curvature="0"
     sodipodi:nodetypes="ccccccccssccsccccccccssscscccc" /><path
     d="m 498.36403,331.14029 c -22.8108,-1.629 -32.82566,-4.39883 -38.77281,-17.98117 -4.46595,-10.1995 -6.1766,-10.72428 -1.88325,-27.83224 1.80714,-15.01387 -0.36566,-19.84853 -6.69593,-24.37289 -12.21989,-5.70283 -22.38747,-9.25981 -34.05985,-0.91366 -11.02723,7.88484 -11.74018,13.86136 -4.94273,36.88404 6.96135,23.57779 -11.81252,26.06932 -18.73697,24.44032 -39.40263,-9.27114 -47.68183,-8.01823 -89.53301,3.03999 -1.11394,6.05875 -1.98865,11.49689 -1.70963,16.10435 0.81477,13.44205 10.18351,60.28525 8.55398,67.61708 -1.62953,7.33183 2.45225,29.53119 -14.65572,17.71815 -17.10796,-11.81252 -15.10356,-13.23872 -27.32346,-12.01657 -12.2199,1.22161 -27.69833,8.14659 -27.69833,26.88355 0,18.7375 11.40513,32.99432 31.36425,30.9574 20.33308,-2.07458 27.48473,-30.51056 35.86949,1.63079 4.88807,18.73696 5.29493,37.47445 4.88807,49.69435 -0.1968,5.90492 -4.38839,21.31971 -8.66749,35.67624 33.81225,1.58127 69.86352,-0.0164 78.32095,-1.46032 39.16659,-6.6868 42.90326,-10.10809 24.77154,-30.37274 -6.73935,-7.18446 -10.56366,-13.27253 -4.74051,-26.73868 7.70107,-17.8089 45.67565,-20.94727 60.54846,-2.07535 8.81382,11.18372 6.73811,20.66993 -0.29793,29.70391 -12.38077,13.42364 -11.87517,15.24409 5.66564,27.44595 34.13317,23.7449 107.53583,8.14712 107.53583,8.14712 0,0 -4.88806,-40.73351 -5.29545,-69.2466 -0.40738,-28.5131 24.03241,-23.62503 28.10571,-23.62503 4.0733,0 11.81252,5.7023 17.51535,10.18298 5.70283,4.48068 10.18351,11.40513 23.21818,12.2199 50.60831,3.16305 47.51314,-54.27106 1.22161,-62.32164 -9.36875,-1.62953 -18.73696,3.25853 -31.36425,12.21989 -12.62727,8.96137 -28.10624,0.81477 -35.84545,-7.73921 -4.37936,-4.84032 -6.80191,-62.23411 -8.30148,-112.85834 -6.02428,2.53236 -13.63301,5.23923 -22.11698,7.13239 -15.35748,3.42775 -35.20572,2.55145 -44.93783,1.85604 z"
     style="fill:#d7aa50;stroke:#000000;stroke-width:1.08635448999999995;fill-opacity:0.27450982"
     id="path2504"
     inkscape:connector-curvature="0"
     sodipodi:nodetypes="csccsscccsccscsccscsscccsssscssccc" /><path
     d="m 212.01114,112.06233 c 18.55238,20.71396 8.69896,48.16053 -25.48863,47.31081 -15.36704,-0.38194 -38.4997,-3.55765 -26.99544,-44.10791 2.1964,-10.91214 -2.97083,-15.637275 -9.83934,-17.526189 -21.88454,-6.018481 -96.944938,0.814766 -96.944938,0.814766 0,0 11.23698,29.737353 11.812509,65.988073 0.407382,25.66141 -35.437802,22.81026 -41.547751,19.95911 -6.109948,-2.85114 -18.7372274,-14.2568 -27.6985918,-14.2568 -56.5856482,0 -51.8071212,78.33952 2.4440326,63.54377 8.9610982,-2.44376 17.9224622,-12.21989 31.3645082,-10.59036 13.442045,1.629 20.366495,10.99775 20.366495,25.66195 0,6.97377 -0.552992,38.17995 -1.307817,72.53856 35.652378,0.87629 80.682513,1.73349 90.921183,0.78082 17.51482,-1.629 24.21876,-8.03715 16.07215,-16.99798 -7.0341,-9.55033 -14.3643,-34.33998 6.28981,-46.06991 23.08879,-11.0093 35.31668,-3.51926 42.48121,2.631 13.1201,11.2627 3.22097,25.18194 -2.88924,31.29162 -6.11021,6.11022 -10.55867,16.03585 1.25385,26.62674 11.81304,10.59037 38.6247,21.25601 80.58036,10.25827 7.81719,-2.04912 14.69656,-3.88712 20.85398,-5.51399 1.72396,-9.37671 4.02397,-20.25351 3.53808,-31.94191 -0.82803,-19.9103 -9.23083,-42.00287 -10.95,-54.19413 -3.48069,-32.79871 18.62026,-22.22983 29.86697,-20.1317 21.91903,4.18818 26.51763,-37.95447 6.19436,-39.79415 -16.11458,0.081 -15.1948,4.51496 -24.62295,5.13939 -19.55173,0.81423 -14.29006,-15.27439 -14.69745,-34.41925 -0.22757,-10.68639 3.60439,-36.13084 7.03478,-56.529699 -30.27312,-0.565448 -60.59821,-3.508369 -69.35642,-4.569793 -22.83359,-2.76787 -28.86302,13.311432 -18.73571,24.098892 z"
     style="fill:#005b82;stroke:#000000;stroke-width:1.08635448999999995;fill-opacity:0.27450982"
     id="path2506"
     inkscape:connector-curvature="0"
     sodipodi:nodetypes="cscscsssccsccccsccscccccccccc" /><path
     d="m 308.14006,473.29943 c -8.38476,-32.14135 -15.53641,-3.70537 -35.86949,-1.63079 -19.95912,2.03692 -31.36425,-12.2199 -31.36425,-30.9574 0,-18.73696 15.47843,-25.66194 27.69833,-26.88355 12.2199,-1.22215 10.2155,0.20405 27.32346,12.01657 17.10797,11.81304 13.02619,-10.38631 14.65572,-17.71815 1.62953,-7.33183 -7.73921,-54.17503 -8.55398,-67.61708 -0.27901,-4.60746 0.59569,-10.0456 1.70963,-16.10435 -6.15742,1.62687 -13.03679,3.46487 -20.85398,5.51399 -41.95566,10.99774 -68.76732,0.3321 -80.58036,-10.25827 -11.81252,-10.59089 -7.36406,-20.51652 -1.25385,-26.62674 6.11021,-6.10968 15.97319,-19.98694 2.88924,-31.29162 -7.11826,-6.15025 -19.34615,-13.6403 -42.48121,-2.631 -20.49749,11.70395 -13.23329,36.41444 -6.28981,46.06991 8.14661,8.96083 1.44267,15.36898 -16.07215,16.99798 -10.23867,0.95267 -55.268805,0.0955 -90.921183,-0.78082 -0.8328,37.88714 -1.911198,79.60888 -2.765482,96.91151 -1.629267,32.99378 14.741395,21.73427 21.665841,20.10474 7.055858,-2.54571 9.180684,-3.84353 25.939694,-6.76712 38.86716,1.47506 36.04892,46.25928 -2.704274,52.97191 -16.861716,2.9207 -25.271803,-13.21101 -31.382014,-17.28431 -6.109691,-4.07331 -9.038566,-4.62631 -13.519247,11.66689 -1.931356,7.02364 -6.166442,25.75265 -6.188721,41.54669 -0.02944,20.84761 4.559454,38.6982 4.559454,38.6982 0,0 25.254563,-5.70283 72.912532,-5.70283 47.65796,0 54.58242,23.21817 49.28697,35.03068 -5.29546,11.81252 -14.66367,10.99775 -16.70058,26.47671 -7.28038,55.32876 80.31755,52.03787 75.76368,1.62901 -1.28157,-14.18414 -13.01876,-14.13694 -18.32959,-29.32787 -10.9691,-31.37485 13.44152,-37.06706 27.29095,-35.84492 6.73031,0.59357 36.45653,5.48164 68.83074,7.09154 0.50711,0.025 1.01634,0.0473 1.52451,0.0711 4.2791,-14.35653 8.47069,-29.77132 8.66749,-35.67624 0.40686,-12.2199 0,-30.95739 -4.88807,-49.69435 z"
     style="fill:#7d966e;stroke:#000000;stroke-width:1.08635448999999995;fill-opacity:0.27450982"
     id="path2508"
     inkscape:connector-curvature="0"
     sodipodi:nodetypes="ccsccsccsccsccccsccsccscssscscccccc" /><text
     xml:space="preserve"
     style="font-size:27.94025421px;font-style:normal;font-weight:normal;line-height:125%;letter-spacing:0px;word-spacing:0px;fill:#000000;fill-opacity:1;stroke:none;font-family:Sans"
     x="67.565781"
     y="188.70319"
     id="text2998"
     sodipodi:linespacing="125%"
     transform="scale(1.0041827,0.99583473)"><tspan
       sodipodi:role="line"
       id="tspan3000"
       x="67.565781"
       y="188.70319">Communicators</tspan></text>
<text
     xml:space="preserve"
     style="font-size:40px;font-style:normal;font-weight:normal;line-height:125%;letter-spacing:0px;word-spacing:0px;fill:#000000;fill-opacity:1;stroke:none;font-family:Sans"
     x="180.71194"
     y="217.98212"
     id="text3002"
     sodipodi:linespacing="125%"><tspan
       sodipodi:role="line"
       id="tspan3004"
       x="180.71194"
       y="217.98212"
       style="font-size:20px;text-align:center;text-anchor:middle">forward sending</tspan><tspan
       sodipodi:role="line"
       x="180.71194"
       y="242.98212"
       id="tspan3006"
       style="font-size:20px;text-align:center;text-anchor:middle">backward receive</tspan></text>
<text
     xml:space="preserve"
     style="font-size:40px;font-style:normal;font-weight:normal;line-height:125%;letter-spacing:0px;word-spacing:0px;fill:#000000;fill-opacity:1;stroke:none;font-family:Sans"
     x="429.58322"
     y="133.26117"
     id="text3008"
     sodipodi:linespacing="125%"><tspan
       sodipodi:role="line"
       id="tspan3010"
       x="429.58322"
       y="133.26117"
       style="font-size:32px;text-align:center;text-anchor:middle">Level Transition</tspan></text>
<text
     xml:space="preserve"
     style="font-size:40px;font-style:normal;font-weight:normal;line-height:125%;letter-spacing:0px;word-spacing:0px;fill:#000000;fill-opacity:1;stroke:none;font-family:Sans"
     x="429.27042"
     y="164.67256"
     id="text3012"
     sodipodi:linespacing="125%"><tspan
       sodipodi:role="line"
       x="429.27042"
       y="164.67256"
       style="font-size:20px;text-align:center;text-anchor:middle"
       id="tspan3163">interpolation / restriction</tspan><tspan
       sodipodi:role="line"
       x="429.27042"
       y="189.67256"
       id="tspan3018"
       style="font-size:20px;text-align:center;text-anchor:middle">addition</tspan><tspan
       sodipodi:role="line"
       x="429.27042"
       y="214.67256"
       style="font-size:20px;text-align:center;text-anchor:middle"
       id="tspan3159">...</tspan></text>
<text
     xml:space="preserve"
     style="font-size:40px;font-style:normal;font-weight:normal;line-height:125%;letter-spacing:0px;word-spacing:0px;fill:#000000;fill-opacity:1;stroke:none;font-family:Sans"
     x="175.8029"
     y="376.69943"
     id="text3020"
     sodipodi:linespacing="125%"><tspan
       sodipodi:role="line"
       id="tspan3022"
       x="175.8029"
       y="376.69943"
       style="font-size:32px;text-align:center;text-anchor:middle">Multiple Levels</tspan></text>
<text
     xml:space="preserve"
     style="font-size:40px;font-style:normal;font-weight:normal;line-height:125%;letter-spacing:0px;word-spacing:0px;fill:#000000;fill-opacity:1;stroke:none;font-family:Sans"
     x="186.11334"
     y="474.57645"
     id="text3024"
     sodipodi:linespacing="125%"><tspan
       sodipodi:role="line"
       x="186.11334"
       y="474.57645"
       id="tspan3028"
       style="font-size:20px;text-align:center;text-anchor:middle">2 or more</tspan><tspan
       sodipodi:role="line"
       x="186.11334"
       y="499.57645"
       style="font-size:20px;text-align:center;text-anchor:middle"
       id="tspan3007">time coarsening</tspan><tspan
       sodipodi:role="line"
       x="186.11334"
       y="524.57648"
       style="font-size:20px;text-align:center;text-anchor:middle"
       id="tspan3009">space coarsening</tspan></text>
<text
     xml:space="preserve"
     style="font-size:40px;font-style:normal;font-weight:normal;line-height:125%;letter-spacing:0px;word-spacing:0px;fill:#000000;fill-opacity:1;stroke:none;font-family:Sans"
     x="440.4884"
     y="373.03476"
     id="text3032"
     sodipodi:linespacing="125%"><tspan
       sodipodi:role="line"
       id="tspan3034"
       x="440.4884"
       y="373.03476"
       style="font-size:32px;text-align:center;text-anchor:middle">Integrators</tspan></text>
<text
     xml:space="preserve"
     style="font-size:40px;font-style:normal;font-weight:normal;line-height:125%;letter-spacing:0px;word-spacing:0px;fill:#000000;fill-opacity:1;stroke:none;font-family:Sans"
     x="439.74075"
     y="414.3931"
     id="text3036"
     sodipodi:linespacing="125%"><tspan
       sodipodi:role="line"
       id="tspan3038"
       x="439.74075"
       y="414.3931"
       style="font-size:20px;text-align:center;text-anchor:middle">SDC</tspan><tspan
       sodipodi:role="line"
       x="439.74075"
       y="439.3931"
       style="font-size:20px;text-align:center;text-anchor:middle"
       id="tspan3153">Runge-Kutta</tspan><tspan
       sodipodi:role="line"
       x="439.74075"
       y="464.3931"
       style="font-size:20px;text-align:center;text-anchor:middle"
       id="tspan3157">Velocity Verlet</tspan></text>
</svg>