<?xml version="1.0" encoding="UTF-8" standalone="no"?>
<svg
   xmlns:dc="http://purl.org/dc/elements/1.1/"
   xmlns:cc="http://creativecommons.org/ns#"
   xmlns:rdf="http://www.w3.org/1999/02/22-rdf-syntax-ns#"
   xmlns:svg="http://www.w3.org/2000/svg"
   xmlns="http://www.w3.org/2000/svg"
   xmlns:sodipodi="http://sodipodi.sourceforge.net/DTD/sodipodi-0.dtd"
   xmlns:inkscape="http://www.inkscape.org/namespaces/inkscape"
   height="300"
   version="1.1"
   viewBox="0 0 763.99996 240.00001"
   width="955"
   id="svg2"
   inkscape:version="0.48.4 r9939"
   sodipodi:docname="plugins_tree.svg">
  <metadata
     id="metadata141">
    <rdf:RDF>
      <cc:Work
         rdf:about="">
        <dc:format>image/svg+xml</dc:format>
        <dc:type
           rdf:resource="http://purl.org/dc/dcmitype/StillImage" />
      </cc:Work>
    </rdf:RDF>
  </metadata>
  <sodipodi:namedview
     pagecolor="#ffffff"
     bordercolor="#666666"
     borderopacity="1"
     objecttolerance="10"
     gridtolerance="10"
     guidetolerance="10"
     inkscape:pageopacity="0"
     inkscape:pageshadow="2"
     inkscape:window-width="1920"
     inkscape:window-height="1145"
     id="namedview139"
     showgrid="false"
     inkscape:zoom="1.5529074"
     inkscape:cx="456.48731"
     inkscape:cy="183.51717"
     inkscape:window-x="1917"
     inkscape:window-y="-3"
     inkscape:window-maximized="1"
     inkscape:current-layer="svg2"
     fit-margin-top="0.01"
     fit-margin-left="0.01"
     fit-margin-right="0.01"
     fit-margin-bottom="0.01"
     units="px" />
  <defs
     id="defs4">
    <filter
       height="3"
       id="f1"
       width="3"
       x="-1"
       y="-1"
       color-interpolation-filters="sRGB">
      <feGaussianBlur
         result="blurOut"
         stdDeviation="2.0"
         id="feGaussianBlur7" />
      <feColorMatrix
         in="blurOut"
         result="blurOut2"
         type="matrix"
         values="0 0 0 0 0 0 0 0 0 0 0 0 0 0 0 0 0 0 .4 0"
         id="feColorMatrix9" />
      <feOffset
         dx="4.0"
         dy="4.0"
         in="blurOut2"
         result="blurOut3"
         id="feOffset11" />
      <feBlend
         in="SourceGraphic"
         in2="blurOut3"
         mode="normal"
         id="feBlend13" />
    </filter>
  </defs>
  <polygon
     id="polygon17"
     style="fill:#ffffff;stroke:#99bad0;stroke-width:2;filter:url(#f1);stroke-opacity:1"
     points="22,24 22,24 104,24 111,46.2969 266,46.2969 266,132 22,132 "
     transform="translate(-16.61627,-18.14367)" />
  <line
     id="line19"
     y2="28.153236"
     y1="28.153236"
     x2="94.383728"
     x1="5.3837299"
     style="stroke:#99bad0;stroke-width:2;stroke-opacity:1" />
  <text
     style="font-size:14px;font-weight:bold;fill:#000000;font-family:sans-serif"
     id="text21"
     y="21.851418"
     x="8.3837299"
     textLength="76"
     lengthAdjust="spacingAndGlyphs"
     font-weight="bold"
     font-size="14">analyzers</text>
  <polygon
     id="polygon47"
     style="fill:#e1eaf1;stroke:#99bad0;stroke-width:1;filter:url(#f1);stroke-opacity:1;fill-opacity:1"
     points="239.75,60.5 158.75,60.5 158.75,60.5 158.75,115.8984 249.75,115.8984 249.75,70.5 "
     transform="translate(-16.61627,-18.14367)" />
  <line
     id="line49"
     y2="52.356331"
     y1="42.356331"
     x2="223.13373"
     x1="223.13373"
     style="stroke:#99bad0;stroke-width:1;stroke-opacity:1" />
  <line
     id="line51"
     y2="52.356331"
     y1="52.356331"
     x2="223.13373"
     x1="233.13373"
     style="stroke:#99bad0;stroke-width:1;stroke-opacity:1" />
  <text
     style="font-size:13px;fill:#000000;font-family:sans-serif"
     id="text53"
     y="59.423225"
     x="148.13373"
     textLength="70"
     lengthAdjust="spacingAndGlyphs"
     font-size="13">specialized</text>
  <text
     style="font-size:13px;fill:#000000;font-family:sans-serif"
     id="text55"
     y="74.556038"
     x="148.13373"
     textLength="50"
     lengthAdjust="spacingAndGlyphs"
     font-size="13">solution</text>
  <text
     style="font-size:13px;fill:#000000;font-family:sans-serif"
     id="text57"
     y="89.68882"
     x="148.13373"
     textLength="61"
     lengthAdjust="spacingAndGlyphs"
     font-size="13">analyzers</text>
  <rect
     id="rect59"
     y="45.856331"
     x="22.13373"
     width="85"
     style="fill:#e1eaf1;stroke:#99bad0;stroke-width:1.50000000000000000;filter:url(#f1);stroke-opacity:1;fill-opacity:1"
     height="48" />
  <ellipse
     d="m 64.75,80 c 0,6.075132 -4.924868,11 -11,11 -6.075132,0 -11,-4.924868 -11,-11 0,-6.075132 4.924868,-11 11,-11 6.075132,0 11,4.924868 11,11 z"
     sodipodi:ry="11"
     sodipodi:rx="11"
     sodipodi:cy="80"
     sodipodi:cx="53.75"
     id="ellipse61"
     style="fill:#7d966e;stroke:#99bad0;stroke-width:1;stroke-opacity:1;fill-opacity:1"
     ry="11"
     rx="11"
     cy="80"
     cx="53.75"
     transform="translate(-16.61627,-18.14367)" />
  <path
     inkscape:connector-curvature="0"
     id="path63"
     d="m 37.24313,57.20013 -1.1563,5.0781 2.3282,0 -1.1719,-5.0781 z m -1.4844,-2.2344 2.9844,0 3.3594,12.3906 -2.4532,0 -0.7656,-3.0625 -3.2812,0 -0.75,3.0625 -2.4375,0 3.3437,-12.3906 z" />
  <text
     style="font-size:12px;font-style:italic;fill:#000000;font-family:sans-serif"
     id="text65"
     y="66.010628"
     x="51.133732"
     textLength="53"
     lengthAdjust="spacingAndGlyphs"
     font-style="italic"
     font-size="12">Analyzer</text>
  <line
     id="line67"
     y2="77.856331"
     y1="77.856331"
     x2="106.13373"
     x1="23.13373"
     style="stroke:#99bad0;stroke-width:1.50000000000000000;stroke-opacity:1" />
  <line
     id="line69"
     y2="85.856331"
     y1="85.856331"
     x2="106.13373"
     x1="23.13373"
     style="stroke:#99bad0;stroke-width:1.50000000000000000;stroke-opacity:1" />
  <polygon
     id="polygon23"
     style="fill:#ffffff;stroke:#99bad0;stroke-width:2;filter:url(#f1);stroke-opacity:1"
     points="290,24 290,24 358,24 365,46.2969 613,46.2969 613,132 290,132 "
     transform="translate(-24.85888,-18.14367)" />
  <line
     id="line25"
     y2="28.153236"
     y1="28.153236"
     x2="340.14111"
     x1="265.14111"
     style="stroke:#99bad0;stroke-width:2;stroke-opacity:1" />
  <text
     style="font-size:14px;font-weight:bold;fill:#000000;font-family:sans-serif"
     id="text27"
     y="21.851418"
     x="268.14111"
     textLength="62"
     lengthAdjust="spacingAndGlyphs"
     font-weight="bold"
     font-size="14">plotters</text>
  <polygon
     id="polygon71"
     style="fill:#e1eaf1;stroke:#99bad0;stroke-width:1;filter:url(#f1);stroke-opacity:1;fill-opacity:1"
     points="597,115.8984 597,70.5 587,60.5 415,60.5 415,60.5 415,115.8984 "
     transform="translate(-24.85888,-18.14367)" />
  <line
     id="line73"
     y2="52.356331"
     y1="42.356331"
     x2="562.14111"
     x1="562.14111"
     style="stroke:#99bad0;stroke-width:1;stroke-opacity:1" />
  <line
     id="line75"
     y2="52.356331"
     y1="52.356331"
     x2="562.14111"
     x1="572.14111"
     style="stroke:#99bad0;stroke-width:1;stroke-opacity:1" />
  <text
     style="font-size:13px;fill:#000000;font-family:sans-serif"
     id="text77"
     y="59.423225"
     x="396.14111"
     textLength="161"
     lengthAdjust="spacingAndGlyphs"
     font-size="13">specialized plotters using</text>
  <text
     style="font-size:13px;fill:#000000;font-family:sans-serif"
     id="text79"
     y="74.556038"
     x="396.14111"
     textLength="123"
     lengthAdjust="spacingAndGlyphs"
     font-size="13">unified interface for</text>
  <text
     style="font-size:13px;fill:#000000;font-family:sans-serif"
     id="text81"
     y="89.68882"
     x="396.14111"
     textLength="160"
     lengthAdjust="spacingAndGlyphs"
     font-size="13">maximum exchangability</text>
  <rect
     id="rect83"
     y="45.856331"
     x="281.89111"
     width="73"
     style="fill:#e1eaf1;stroke:#99bad0;stroke-width:1.50000000000000000;filter:url(#f1);stroke-opacity:1;fill-opacity:1"
     height="48" />
  <ellipse
     d="m 332.75,80 c 0,6.075132 -4.92487,11 -11,11 -6.07513,0 -11,-4.924868 -11,-11 0,-6.075132 4.92487,-11 11,-11 6.07513,0 11,4.924868 11,11 z"
     sodipodi:ry="11"
     sodipodi:rx="11"
     sodipodi:cy="80"
     sodipodi:cx="321.75"
     id="ellipse85"
     style="fill:#7d966e;stroke:#99bad0;stroke-width:1;stroke-opacity:1;fill-opacity:1"
     ry="11"
     rx="11"
     cy="80"
     cx="321.75"
     transform="translate(-24.85888,-18.14367)" />
  <path
     inkscape:connector-curvature="0"
     id="path87"
     d="m 297.00052,57.20013 -1.1563,5.0781 2.3282,0 -1.1719,-5.0781 z m -1.4844,-2.2344 2.9844,0 3.3594,12.3906 -2.4532,0 -0.7656,-3.0625 -3.2812,0 -0.75,3.0625 -2.4375,0 3.3437,-12.3906 z" />
  <text
     style="font-size:12px;font-style:italic;fill:#000000;font-family:sans-serif"
     id="text89"
     y="66.010628"
     x="310.89111"
     textLength="41"
     lengthAdjust="spacingAndGlyphs"
     font-style="italic"
     font-size="12">Plotter</text>
  <line
     id="line91"
     y2="77.856331"
     y1="77.856331"
     x2="353.89111"
     x1="282.89111"
     style="stroke:#99bad0;stroke-width:1.50000000000000000;stroke-opacity:1" />
  <line
     id="line93"
     y2="85.856331"
     y1="85.856331"
     x2="353.89111"
     x1="282.89111"
     style="stroke:#99bad0;stroke-width:1.50000000000000000;stroke-opacity:1" />
  <polygon
     id="polygon29"
     style="fill:#ffffff;stroke:#99bad0;stroke-width:2;filter:url(#f1);stroke-opacity:1"
     points="637,28 637,28 693,28 700,50.2969 964,50.2969 964,128 637,128 "
     transform="translate(-631.72057,100.34375)" />
  <line
     id="line31"
     y2="150.64066"
     y1="150.64066"
     x2="68.279427"
     x1="5.2794299"
     style="stroke:#99bad0;stroke-width:2;stroke-opacity:1" />
  <text
     style="font-size:14px;font-weight:bold;fill:#000000;font-family:sans-serif"
     id="text33"
     y="144.33884"
     x="8.2794304"
     textLength="50"
     lengthAdjust="spacingAndGlyphs"
     font-weight="bold"
     font-size="14">timers</text>
  <polygon
     id="polygon35"
     style="fill:#ffffff;stroke:#99bad0;stroke-width:2;filter:url(#f1);stroke-opacity:1"
     points="988,24 988,24 1114,24 1121,46.2969 1178,46.2969 1178,132 988,132 "
     transform="translate(-631.72057,100.34375)" />
  <line
     id="line37"
     y2="146.64066"
     y1="146.64066"
     x2="489.27942"
     x1="356.27942"
     style="stroke:#99bad0;stroke-width:2;stroke-opacity:1" />
  <text
     style="font-size:14px;font-weight:bold;fill:#000000;font-family:sans-serif"
     id="text39"
     y="140.33884"
     x="359.27942"
     textLength="120"
     lengthAdjust="spacingAndGlyphs"
     font-weight="bold"
     font-size="14">implicit_solvers</text>
  <polygon
     id="polygon41"
     style="fill:#ffffff;stroke:#99bad0;stroke-width:2;filter:url(#f1);stroke-opacity:1"
     points="1202,32 1202,32 1277,32 1284,54.2969 1386,54.2969 1386,124 1202,124 "
     transform="translate(-631.72057,100.34375)" />
  <line
     id="line43"
     y2="154.64066"
     y1="154.64066"
     x2="652.27942"
     x1="570.27942"
     style="stroke:#99bad0;stroke-width:2;stroke-opacity:1" />
  <text
     style="font-size:14px;font-weight:bold;fill:#000000;font-family:sans-serif"
     id="text45"
     y="148.33884"
     x="573.27942"
     textLength="69"
     lengthAdjust="spacingAndGlyphs"
     font-weight="bold"
     font-size="14">multigrid</text>
  <polygon
     id="polygon95"
     style="fill:#e1eaf1;stroke:#99bad0;stroke-width:1;filter:url(#f1);stroke-opacity:1;fill-opacity:1"
     points="948,108.2656 948,78 938,68 784,68 784,68 784,108.2656 "
     transform="translate(-631.72057,100.34375)" />
  <line
     id="line97"
     y2="178.34375"
     y1="168.34375"
     x2="306.27942"
     x1="306.27942"
     style="stroke:#99bad0;stroke-width:1;stroke-opacity:1" />
  <line
     id="line99"
     y2="178.34375"
     y1="178.34375"
     x2="306.27942"
     x1="316.27942"
     style="stroke:#99bad0;stroke-width:1;stroke-opacity:1" />
  <text
     style="font-size:13px;fill:#000000;font-family:sans-serif"
     id="text101"
     y="185.41064"
     x="158.27943"
     textLength="126"
     lengthAdjust="spacingAndGlyphs"
     font-size="13">exchangable timers</text>
  <text
     style="font-size:13px;fill:#000000;font-family:sans-serif"
     id="text103"
     y="200.54346"
     x="158.27943"
     textLength="143"
     lengthAdjust="spacingAndGlyphs"
     font-size="13">for measuring runtime</text>
  <rect
     id="rect105"
     y="164.34375"
     x="21.27943"
     width="96"
     style="fill:#e1eaf1;stroke:#99bad0;stroke-width:1.50000000000000000;filter:url(#f1);stroke-opacity:1;fill-opacity:1"
     height="48" />
  <ellipse
     d="m 679,80 c 0,6.075132 -4.92487,11 -11,11 -6.07513,0 -11,-4.924868 -11,-11 0,-6.075132 4.92487,-11 11,-11 6.07513,0 11,4.924868 11,11 z"
     sodipodi:ry="11"
     sodipodi:rx="11"
     sodipodi:cy="80"
     sodipodi:cx="668"
     id="ellipse107"
     style="fill:#7d966e;stroke:#99bad0;stroke-width:1;stroke-opacity:1;fill-opacity:1"
     ry="11"
     rx="11"
     cy="80"
     cx="668"
     transform="translate(-631.72057,100.34375)" />
  <path
     inkscape:connector-curvature="0"
     id="path109"
     d="m 36.38883,175.68755 -1.1563,5.0781 2.3282,0 -1.1719,-5.0781 z m -1.4844,-2.2344 2.9844,0 3.3594,12.3906 -2.4532,0 -0.7656,-3.0625 -3.2812,0 -0.75,3.0625 -2.4375,0 3.3437,-12.3906 z" />
  <text
     style="font-size:12px;font-style:italic;fill:#000000;font-family:sans-serif"
     id="text111"
     y="184.49805"
     x="50.27943"
     textLength="64"
     lengthAdjust="spacingAndGlyphs"
     font-style="italic"
     font-size="12">TimerBase</text>
  <line
     id="line113"
     y2="196.34375"
     y1="196.34375"
     x2="116.27943"
     x1="22.27943"
     style="stroke:#99bad0;stroke-width:1.50000000000000000;stroke-opacity:1" />
  <line
     id="line115"
     y2="204.34375"
     y1="204.34375"
     x2="116.27943"
     x1="22.27943"
     style="stroke:#99bad0;stroke-width:1.50000000000000000;stroke-opacity:1" />
  <polygon
     id="polygon117"
     style="fill:#e1eaf1;stroke:#99bad0;stroke-width:1;filter:url(#f1);stroke-opacity:1;fill-opacity:1"
     points="1161.75,115.8984 1161.75,70.5 1151.75,60.5 1004.75,60.5 1004.75,60.5 1004.75,115.8984 "
     transform="translate(-631.72057,100.34375)" />
  <line
     id="line119"
     y2="170.84375"
     y1="160.84375"
     x2="520.02942"
     x1="520.02942"
     style="stroke:#99bad0;stroke-width:1;stroke-opacity:1" />
  <line
     id="line121"
     y2="170.84375"
     y1="170.84375"
     x2="520.02942"
     x1="530.02942"
     style="stroke:#99bad0;stroke-width:1;stroke-opacity:1" />
  <text
     style="font-size:13px;fill:#000000;font-family:sans-serif"
     id="text123"
     y="177.91064"
     x="379.02942"
     textLength="136"
     lengthAdjust="spacingAndGlyphs"
     font-size="13">implicit space solvers</text>
  <text
     style="font-size:13px;fill:#000000;font-family:sans-serif"
     id="text125"
     y="193.04346"
     x="379.02942"
     textLength="125"
     lengthAdjust="spacingAndGlyphs"
     font-size="13">such as root finding</text>
  <text
     style="font-size:13px;fill:#000000;font-family:sans-serif"
     id="text127"
     y="208.17624"
     x="379.02942"
     textLength="68"
     lengthAdjust="spacingAndGlyphs"
     font-size="13">algorithms</text>
  <polygon
     id="polygon129"
     style="fill:#e1eaf1;stroke:#99bad0;stroke-width:1;filter:url(#f1);stroke-opacity:1;fill-opacity:1"
     points="1369.75,108.2656 1369.75,78 1359.75,68 1218.75,68 1218.75,68 1218.75,108.2656 "
     transform="translate(-631.72057,100.34375)" />
  <line
     id="line131"
     y2="178.34375"
     y1="168.34375"
     x2="728.02942"
     x1="728.02942"
     style="stroke:#99bad0;stroke-width:1;stroke-opacity:1" />
  <line
     id="line133"
     y2="178.34375"
     y1="178.34375"
     x2="728.02942"
     x1="738.02942"
     style="stroke:#99bad0;stroke-width:1;stroke-opacity:1" />
  <text
     style="font-size:13px;fill:#000000;font-family:sans-serif"
     id="text135"
     y="185.41064"
     x="593.02942"
     textLength="112"
     lengthAdjust="spacingAndGlyphs"
     font-size="13">too many classes</text>
  <text
     style="font-size:13px;fill:#000000;font-family:sans-serif"
     id="text137"
     y="200.54346"
     x="593.02942"
     textLength="130"
     lengthAdjust="spacingAndGlyphs"
     font-size="13">to be displayed here</text>
</svg>
