<?xml version="1.0" encoding="UTF-8" standalone="no"?>
<svg
   xmlns:dc="http://purl.org/dc/elements/1.1/"
   xmlns:cc="http://creativecommons.org/ns#"
   xmlns:rdf="http://www.w3.org/1999/02/22-rdf-syntax-ns#"
   xmlns:svg="http://www.w3.org/2000/svg"
   xmlns="http://www.w3.org/2000/svg"
   xmlns:sodipodi="http://sodipodi.sourceforge.net/DTD/sodipodi-0.dtd"
   xmlns:inkscape="http://www.inkscape.org/namespaces/inkscape"
   height="417"
   version="1.1"
   viewBox="0 0 784 333.6"
   width="980"
   id="svg3403"
   inkscape:version="0.48.4 r9939"
   sodipodi:docname="plugins_tree.svg">
  <metadata
     id="metadata3542">
    <rdf:RDF>
      <cc:Work
         rdf:about="">
        <dc:format>image/svg+xml</dc:format>
        <dc:type
           rdf:resource="http://purl.org/dc/dcmitype/StillImage" />
      </cc:Work>
    </rdf:RDF>
  </metadata>
  <sodipodi:namedview
     pagecolor="#ffffff"
     bordercolor="#666666"
     borderopacity="1"
     objecttolerance="10"
     gridtolerance="10"
     guidetolerance="10"
     inkscape:pageopacity="0"
     inkscape:pageshadow="2"
     inkscape:window-width="1600"
     inkscape:window-height="845"
     id="namedview3540"
     showgrid="false"
     inkscape:zoom="0.70720816"
     inkscape:cx="837.3964"
     inkscape:cy="299.1564"
     inkscape:window-x="-2"
     inkscape:window-y="-3"
     inkscape:window-maximized="1"
     inkscape:current-layer="svg3403" />
  <defs
     id="defs3405">
    <filter
       height="3"
       id="f1"
       width="3"
       x="-1"
       y="-1"
       color-interpolation-filters="sRGB">
      <feGaussianBlur
         result="blurOut"
         stdDeviation="2.0"
         id="feGaussianBlur3408" />
      <feColorMatrix
         in="blurOut"
         result="blurOut2"
         type="matrix"
         values="0 0 0 0 0 0 0 0 0 0 0 0 0 0 0 0 0 0 .4 0"
         id="feColorMatrix3410" />
      <feOffset
         dx="4.0"
         dy="4.0"
         in="blurOut2"
         result="blurOut3"
         id="feOffset3412" />
      <feBlend
         in="SourceGraphic"
         in2="blurOut3"
         mode="normal"
         id="feBlend3414" />
    </filter>
  </defs>
  <g
     id="g3688"
     transform="translate(58.822849,-296.85075)">
    <polygon
       transform="translate(0,289)"
       points="22,60 104,60 111,82.2969 266,82.2969 266,168 22,168 22,60 "
       style="fill:#ffffff;stroke:#99bad0;stroke-width:2;filter:url(#f1)"
       id="polygon3418" />
    <line
       style="stroke:#99bad0;stroke-width:2"
       x1="22"
       x2="111"
       y1="371.29691"
       y2="371.29691"
       id="line3420" />
    <text
       font-size="14"
       font-weight="bold"
       lengthAdjust="spacingAndGlyphs"
       textLength="76"
       x="25"
       y="364.99512"
       id="text3422"
       style="font-size:14px;font-weight:bold;fill:#000000;font-family:sans-serif">analyzers</text>
    <polygon
       transform="translate(0,289)"
       points="249.75,106.5 239.75,96.5 158.75,96.5 158.75,96.5 158.75,151.8984 249.75,151.8984 "
       style="fill:#e1eaf1;stroke:#99bad0;stroke-width:1;filter:url(#f1)"
       id="polygon3448" />
    <line
       style="stroke:#99bad0;stroke-width:1"
       x1="239.75"
       x2="239.75"
       y1="385.5"
       y2="395.5"
       id="line3450" />
    <line
       style="stroke:#99bad0;stroke-width:1"
       x1="249.75"
       x2="239.75"
       y1="395.5"
       y2="395.5"
       id="line3452" />
    <text
       font-size="13"
       lengthAdjust="spacingAndGlyphs"
       textLength="70"
       x="164.75"
       y="402.56689"
       id="text3454"
       style="font-size:13px;fill:#000000;font-family:sans-serif">specialized</text>
    <text
       font-size="13"
       lengthAdjust="spacingAndGlyphs"
       textLength="50"
       x="164.75"
       y="417.69971"
       id="text3456"
       style="font-size:13px;fill:#000000;font-family:sans-serif">solution</text>
    <text
       font-size="13"
       lengthAdjust="spacingAndGlyphs"
       textLength="61"
       x="164.75"
       y="432.83252"
       id="text3458"
       style="font-size:13px;fill:#000000;font-family:sans-serif">analyzers</text>
    <rect
       height="48"
       style="fill:#e1eaf1;stroke:#99bad0;stroke-width:1.5;filter:url(#f1)"
       width="85"
       x="38.75"
       y="389"
       id="rect3460" />
    <ellipse
       transform="translate(0,289)"
       cx="53.75"
       cy="116"
       rx="11"
       ry="11"
       style="fill:#7d966e;stroke:#99bad0;stroke-width:1"
       id="ellipse3462"
       sodipodi:cx="53.75"
       sodipodi:cy="116"
       sodipodi:rx="11"
       sodipodi:ry="11"
       d="m 64.75,116 c 0,6.07513 -4.924868,11 -11,11 -6.075132,0 -11,-4.92487 -11,-11 0,-6.07513 4.924868,-11 11,-11 6.075132,0 11,4.92487 11,11 z" />
    <path
       d="m 53.8594,400.3438 -1.1563,5.0781 2.3282,0 -1.1719,-5.0781 z m -1.4844,-2.2344 2.9844,0 3.3594,12.3906 -2.4532,0 -0.7656,-3.0625 -3.2812,0 -0.75,3.0625 -2.4375,0 3.3437,-12.3906 z"
       id="path3464"
       inkscape:connector-curvature="0" />
    <text
       font-size="12"
       font-style="italic"
       lengthAdjust="spacingAndGlyphs"
       textLength="53"
       x="67.75"
       y="409.1543"
       id="text3466"
       style="font-size:12px;font-style:italic;fill:#000000;font-family:sans-serif">Analyzer</text>
    <line
       style="stroke:#99bad0;stroke-width:1.5"
       x1="39.75"
       x2="122.75"
       y1="421"
       y2="421"
       id="line3468" />
    <line
       style="stroke:#99bad0;stroke-width:1.5"
       x1="39.75"
       x2="122.75"
       y1="429"
       y2="429"
       id="line3470" />
  </g>
  <g
     id="g3671"
     transform="translate(113.12086,-335.31185)">
    <polygon
       transform="translate(0,289)"
       points="613,82.2969 613,168 290,168 290,60 290,60 358,60 365,82.2969 "
       style="fill:#ffffff;stroke:#99bad0;stroke-width:2;filter:url(#f1)"
       id="polygon3424" />
    <line
       style="stroke:#99bad0;stroke-width:2"
       x1="290"
       x2="365"
       y1="371.29691"
       y2="371.29691"
       id="line3426" />
    <text
       font-size="14"
       font-weight="bold"
       lengthAdjust="spacingAndGlyphs"
       textLength="62"
       x="293"
       y="364.99512"
       id="text3428"
       style="font-size:14px;font-weight:bold;fill:#000000;font-family:sans-serif">plotters</text>
    <polygon
       transform="translate(0,289)"
       points="415,96.5 415,151.8984 597,151.8984 597,106.5 587,96.5 415,96.5 "
       style="fill:#e1eaf1;stroke:#99bad0;stroke-width:1;filter:url(#f1)"
       id="polygon3472" />
    <line
       style="stroke:#99bad0;stroke-width:1"
       x1="587"
       x2="587"
       y1="385.5"
       y2="395.5"
       id="line3474" />
    <line
       style="stroke:#99bad0;stroke-width:1"
       x1="597"
       x2="587"
       y1="395.5"
       y2="395.5"
       id="line3476" />
    <text
       font-size="13"
       lengthAdjust="spacingAndGlyphs"
       textLength="161"
       x="421"
       y="402.56689"
       id="text3478"
       style="font-size:13px;fill:#000000;font-family:sans-serif">specialized plotters using</text>
    <text
       font-size="13"
       lengthAdjust="spacingAndGlyphs"
       textLength="123"
       x="421"
       y="417.69971"
       id="text3480"
       style="font-size:13px;fill:#000000;font-family:sans-serif">unified interface for</text>
    <text
       font-size="13"
       lengthAdjust="spacingAndGlyphs"
       textLength="160"
       x="421"
       y="432.83252"
       id="text3482"
       style="font-size:13px;fill:#000000;font-family:sans-serif">maximum exchangability</text>
    <rect
       height="48"
       style="fill:#e1eaf1;stroke:#99bad0;stroke-width:1.5;filter:url(#f1)"
       width="73"
       x="306.75"
       y="389"
       id="rect3484" />
    <ellipse
       transform="translate(0,289)"
       cx="321.75"
       cy="116"
       rx="11"
       ry="11"
       style="fill:#7d966e;stroke:#99bad0;stroke-width:1"
       id="ellipse3486"
       sodipodi:cx="321.75"
       sodipodi:cy="116"
       sodipodi:rx="11"
       sodipodi:ry="11"
       d="m 332.75,116 c 0,6.07513 -4.92487,11 -11,11 -6.07513,0 -11,-4.92487 -11,-11 0,-6.07513 4.92487,-11 11,-11 6.07513,0 11,4.92487 11,11 z" />
    <path
       d="m 321.8594,400.3438 -1.1563,5.0781 2.3282,0 -1.1719,-5.0781 z m -1.4844,-2.2344 2.9844,0 3.3594,12.3906 -2.4532,0 -0.7656,-3.0625 -3.2812,0 -0.75,3.0625 -2.4375,0 3.3437,-12.3906 z"
       id="path3488"
       inkscape:connector-curvature="0" />
    <text
       font-size="12"
       font-style="italic"
       lengthAdjust="spacingAndGlyphs"
       textLength="41"
       x="335.75"
       y="409.1543"
       id="text3490"
       style="font-size:12px;font-style:italic;fill:#000000;font-family:sans-serif">Plotter</text>
    <line
       style="stroke:#99bad0;stroke-width:1.5"
       x1="307.75"
       x2="378.75"
       y1="421"
       y2="421"
       id="line3492" />
    <line
       style="stroke:#99bad0;stroke-width:1.5"
       x1="307.75"
       x2="378.75"
       y1="429"
       y2="429"
       id="line3494" />
  </g>
  <g
     id="g3655"
     transform="translate(-623.29598,-157.71208)">
    <polygon
       transform="translate(0,289)"
       points="693,64 700,86.2969 964,86.2969 964,164 637,164 637,64 637,64 "
       style="fill:#ffffff;stroke:#99bad0;stroke-width:2;filter:url(#f1)"
       id="polygon3430" />
    <line
       style="stroke:#99bad0;stroke-width:2"
       x1="637"
       x2="700"
       y1="375.29691"
       y2="375.29691"
       id="line3432" />
    <text
       font-size="14"
       font-weight="bold"
       lengthAdjust="spacingAndGlyphs"
       textLength="50"
       x="640"
       y="368.99512"
       id="text3434"
       style="font-size:14px;font-weight:bold;fill:#000000;font-family:sans-serif">timers</text>
    <polygon
       transform="translate(0,289)"
       points="938,104 784,104 784,104 784,144.2656 948,144.2656 948,114 "
       style="fill:#e1eaf1;stroke:#99bad0;stroke-width:1;filter:url(#f1)"
       id="polygon3496" />
    <line
       style="stroke:#99bad0;stroke-width:1"
       x1="938"
       x2="938"
       y1="393"
       y2="403"
       id="line3498" />
    <line
       style="stroke:#99bad0;stroke-width:1"
       x1="948"
       x2="938"
       y1="403"
       y2="403"
       id="line3500" />
    <text
       font-size="13"
       lengthAdjust="spacingAndGlyphs"
       textLength="126"
       x="790"
       y="410.06689"
       id="text3502"
       style="font-size:13px;fill:#000000;font-family:sans-serif">exchangable timers</text>
    <text
       font-size="13"
       lengthAdjust="spacingAndGlyphs"
       textLength="143"
       x="790"
       y="425.19971"
       id="text3504"
       style="font-size:13px;fill:#000000;font-family:sans-serif">for measuring runtime</text>
    <rect
       height="48"
       style="fill:#e1eaf1;stroke:#99bad0;stroke-width:1.5;filter:url(#f1)"
       width="96"
       x="653"
       y="389"
       id="rect3506" />
    <ellipse
       transform="translate(0,289)"
       cx="668"
       cy="116"
       rx="11"
       ry="11"
       style="fill:#7d966e;stroke:#99bad0;stroke-width:1"
       id="ellipse3508"
       sodipodi:cx="668"
       sodipodi:cy="116"
       sodipodi:rx="11"
       sodipodi:ry="11"
       d="m 679,116 c 0,6.07513 -4.92487,11 -11,11 -6.07513,0 -11,-4.92487 -11,-11 0,-6.07513 4.92487,-11 11,-11 6.07513,0 11,4.92487 11,11 z" />
    <path
       d="m 668.1094,400.3438 -1.1563,5.0781 2.3282,0 -1.1719,-5.0781 z m -1.4844,-2.2344 2.9844,0 3.3594,12.3906 -2.4532,0 -0.7656,-3.0625 -3.2812,0 -0.75,3.0625 -2.4375,0 3.3437,-12.3906 z"
       id="path3510"
       inkscape:connector-curvature="0" />
    <text
       font-size="12"
       font-style="italic"
       lengthAdjust="spacingAndGlyphs"
       textLength="64"
       x="682"
       y="409.1543"
       id="text3512"
       style="font-size:12px;font-style:italic;fill:#000000;font-family:sans-serif">TimerBase</text>
    <line
       style="stroke:#99bad0;stroke-width:1.5"
       x1="654"
       x2="748"
       y1="421"
       y2="421"
       id="line3514" />
    <line
       style="stroke:#99bad0;stroke-width:1.5"
       x1="654"
       x2="748"
       y1="429"
       y2="429"
       id="line3516" />
  </g>
  <g
     id="g3636"
     transform="translate(-618.77114,-152.05604)">
    <polygon
       transform="translate(0,289)"
       points="1114,24 1121,46.2969 1388,46.2969 1388,184 988,184 988,24 988,24 "
       style="fill:#ffffff;stroke:#99bad0;stroke-width:2;filter:url(#f1)"
       id="polygon3436" />
    <line
       style="stroke:#99bad0;stroke-width:2"
       x1="988"
       x2="1121"
       y1="335.29691"
       y2="335.29691"
       id="line3438" />
    <text
       font-size="14"
       font-weight="bold"
       lengthAdjust="spacingAndGlyphs"
       textLength="120"
       x="991"
       y="328.99509"
       id="text3440"
       style="font-size:14px;font-weight:bold;fill:#000000;font-family:sans-serif">implicit_solvers</text>
    <polygon
       transform="translate(0,289)"
       points="1255,68 1262,90.2969 1364,90.2969 1364,160 1180,160 1180,68 1180,68 "
       style="fill:#ffffff;stroke:#99bad0;stroke-width:2;filter:url(#f1)"
       id="polygon3442" />
    <line
       style="stroke:#99bad0;stroke-width:2"
       x1="1180"
       x2="1262"
       y1="379.29691"
       y2="379.29691"
       id="line3444" />
    <text
       font-size="14"
       font-weight="bold"
       lengthAdjust="spacingAndGlyphs"
       textLength="69"
       x="1183"
       y="372.99512"
       id="text3446"
       style="font-size:14px;font-weight:bold;fill:#000000;font-family:sans-serif">multigrid</text>
    <polygon
       transform="translate(0,289)"
       points="1151.75,96.5 1004.75,96.5 1004.75,96.5 1004.75,151.8984 1161.75,151.8984 1161.75,106.5 "
       style="fill:#e1eaf1;stroke:#99bad0;stroke-width:1;filter:url(#f1)"
       id="polygon3518" />
    <line
       style="stroke:#99bad0;stroke-width:1"
       x1="1151.75"
       x2="1151.75"
       y1="385.5"
       y2="395.5"
       id="line3520" />
    <line
       style="stroke:#99bad0;stroke-width:1"
       x1="1161.75"
       x2="1151.75"
       y1="395.5"
       y2="395.5"
       id="line3522" />
    <text
       font-size="13"
       lengthAdjust="spacingAndGlyphs"
       textLength="136"
       x="1010.75"
       y="402.56689"
       id="text3524"
       style="font-size:13px;fill:#000000;font-family:sans-serif">implicit space solvers</text>
    <text
       font-size="13"
       lengthAdjust="spacingAndGlyphs"
       textLength="125"
       x="1010.75"
       y="417.69971"
       id="text3526"
       style="font-size:13px;fill:#000000;font-family:sans-serif">such as root finding</text>
    <text
       font-size="13"
       lengthAdjust="spacingAndGlyphs"
       textLength="68"
       x="1010.75"
       y="432.83252"
       id="text3528"
       style="font-size:13px;fill:#000000;font-family:sans-serif">algorithms</text>
    <polygon
       transform="translate(0,289)"
       points="1337.75,104 1196.75,104 1196.75,104 1196.75,144.2656 1347.75,144.2656 1347.75,114 "
       style="fill:#e1eaf1;stroke:#99bad0;stroke-width:1;filter:url(#f1)"
       id="polygon3530" />
    <line
       style="stroke:#99bad0;stroke-width:1"
       x1="1337.75"
       x2="1337.75"
       y1="393"
       y2="403"
       id="line3532" />
    <line
       style="stroke:#99bad0;stroke-width:1"
       x1="1347.75"
       x2="1337.75"
       y1="403"
       y2="403"
       id="line3534" />
    <text
       font-size="13"
       lengthAdjust="spacingAndGlyphs"
       textLength="112"
       x="1202.75"
       y="410.06689"
       id="text3536"
       style="font-size:13px;fill:#000000;font-family:sans-serif">too many classes</text>
    <text
       font-size="13"
       lengthAdjust="spacingAndGlyphs"
       textLength="130"
       x="1202.75"
       y="425.19971"
       id="text3538"
       style="font-size:13px;fill:#000000;font-family:sans-serif">to be displayed here</text>
  </g>
</svg>
