<?xml version="1.0" encoding="UTF-8" standalone="yes"?><svg xmlns="http://www.w3.org/2000/svg" xmlns:xlink="http://www.w3.org/1999/xlink" height="191pt" style="width:1395px;height:191px;" version="1.1" viewBox="0 0 1395 191" width="1395pt"><defs><filter height="300%" id="f1" width="300%" x="-1" y="-1"><feGaussianBlur result="blurOut" stdDeviation="2.0"/><feColorMatrix in="blurOut" result="blurOut2" type="matrix" values="0 0 0 0 0 0 0 0 0 0 0 0 0 0 0 0 0 0 .4 0"/><feOffset dx="4.0" dy="4.0" in="blurOut2" result="blurOut3"/><feBlend in="SourceGraphic" in2="blurOut3" mode="normal"/></filter></defs><g><polygon fill="#FFFFFF" filter="url(#f1)" points="22,60,104,60,111,82.2969,266,82.2969,266,168,22,168,22,60" style="stroke: #99BAD0; stroke-width: 2.0;"/><line style="stroke: #99BAD0; stroke-width: 2.0;" x1="22" x2="111" y1="82.2969" y2="82.2969"/><text fill="#000000" font-family="sans-serif" font-size="14" font-weight="bold" lengthAdjust="spacingAndGlyphs" textLength="76" x="25" y="75.9951">analyzers</text><polygon fill="#FFFFFF" filter="url(#f1)" points="290,60,358,60,365,82.2969,613,82.2969,613,168,290,168,290,60" style="stroke: #99BAD0; stroke-width: 2.0;"/><line style="stroke: #99BAD0; stroke-width: 2.0;" x1="290" x2="365" y1="82.2969" y2="82.2969"/><text fill="#000000" font-family="sans-serif" font-size="14" font-weight="bold" lengthAdjust="spacingAndGlyphs" textLength="62" x="293" y="75.9951">plotters</text><polygon fill="#FFFFFF" filter="url(#f1)" points="637,64,693,64,700,86.2969,964,86.2969,964,164,637,164,637,64" style="stroke: #99BAD0; stroke-width: 2.0;"/><line style="stroke: #99BAD0; stroke-width: 2.0;" x1="637" x2="700" y1="86.2969" y2="86.2969"/><text fill="#000000" font-family="sans-serif" font-size="14" font-weight="bold" lengthAdjust="spacingAndGlyphs" textLength="50" x="640" y="79.9951">timers</text><polygon fill="#FFFFFF" filter="url(#f1)" points="988,24,1114,24,1121,46.2969,1388,46.2969,1388,184,988,184,988,24" style="stroke: #99BAD0; stroke-width: 2.0;"/><line style="stroke: #99BAD0; stroke-width: 2.0;" x1="988" x2="1121" y1="46.2969" y2="46.2969"/><text fill="#000000" font-family="sans-serif" font-size="14" font-weight="bold" lengthAdjust="spacingAndGlyphs" textLength="120" x="991" y="39.9951">implicit_solvers</text><polygon fill="#FFFFFF" filter="url(#f1)" points="1180,68,1255,68,1262,90.2969,1364,90.2969,1364,160,1180,160,1180,68" style="stroke: #99BAD0; stroke-width: 2.0;"/><line style="stroke: #99BAD0; stroke-width: 2.0;" x1="1180" x2="1262" y1="90.2969" y2="90.2969"/><text fill="#000000" font-family="sans-serif" font-size="14" font-weight="bold" lengthAdjust="spacingAndGlyphs" textLength="69" x="1183" y="83.9951">multigrid</text><polygon fill="#E1EAF1" filter="url(#f1)" points="158.75,96.5,158.75,151.8984,249.75,151.8984,249.75,106.5,239.75,96.5,158.75,96.5" style="stroke: #99BAD0; stroke-width: 1.0;"/><line style="stroke: #99BAD0; stroke-width: 1.0;" x1="239.75" x2="239.75" y1="96.5" y2="106.5"/><line style="stroke: #99BAD0; stroke-width: 1.0;" x1="249.75" x2="239.75" y1="106.5" y2="106.5"/><text fill="#000000" font-family="sans-serif" font-size="13" lengthAdjust="spacingAndGlyphs" textLength="70" x="164.75" y="113.5669">specialized</text><text fill="#000000" font-family="sans-serif" font-size="13" lengthAdjust="spacingAndGlyphs" textLength="50" x="164.75" y="128.6997">solution</text><text fill="#000000" font-family="sans-serif" font-size="13" lengthAdjust="spacingAndGlyphs" textLength="61" x="164.75" y="143.8325">analyzers</text><rect fill="#E1EAF1" filter="url(#f1)" height="48" style="stroke: #99BAD0; stroke-width: 1.5;" width="85" x="38.75" y="100"/><ellipse cx="53.75" cy="116" fill="#7D966E" rx="11" ry="11" style="stroke: #99BAD0; stroke-width: 1.0;"/><path d="M53.8594,111.3438 L52.7031,116.4219 L55.0313,116.4219 L53.8594,111.3438 Z M52.375,109.1094 L55.3594,109.1094 L58.7188,121.5 L56.2656,121.5 L55.5,118.4375 L52.2188,118.4375 L51.4688,121.5 L49.0313,121.5 L52.375,109.1094 Z "/><text fill="#000000" font-family="sans-serif" font-size="12" font-style="italic" lengthAdjust="spacingAndGlyphs" textLength="53" x="67.75" y="120.1543">Analyzer</text><line style="stroke: #99BAD0; stroke-width: 1.5;" x1="39.75" x2="122.75" y1="132" y2="132"/><line style="stroke: #99BAD0; stroke-width: 1.5;" x1="39.75" x2="122.75" y1="140" y2="140"/><polygon fill="#E1EAF1" filter="url(#f1)" points="415,96.5,415,151.8984,597,151.8984,597,106.5,587,96.5,415,96.5" style="stroke: #99BAD0; stroke-width: 1.0;"/><line style="stroke: #99BAD0; stroke-width: 1.0;" x1="587" x2="587" y1="96.5" y2="106.5"/><line style="stroke: #99BAD0; stroke-width: 1.0;" x1="597" x2="587" y1="106.5" y2="106.5"/><text fill="#000000" font-family="sans-serif" font-size="13" lengthAdjust="spacingAndGlyphs" textLength="161" x="421" y="113.5669">specialized plotters using</text><text fill="#000000" font-family="sans-serif" font-size="13" lengthAdjust="spacingAndGlyphs" textLength="123" x="421" y="128.6997">unified interface for</text><text fill="#000000" font-family="sans-serif" font-size="13" lengthAdjust="spacingAndGlyphs" textLength="160" x="421" y="143.8325">maximum exchangability</text><rect fill="#E1EAF1" filter="url(#f1)" height="48" style="stroke: #99BAD0; stroke-width: 1.5;" width="73" x="306.75" y="100"/><ellipse cx="321.75" cy="116" fill="#7D966E" rx="11" ry="11" style="stroke: #99BAD0; stroke-width: 1.0;"/><path d="M321.8594,111.3438 L320.7031,116.4219 L323.0313,116.4219 L321.8594,111.3438 Z M320.375,109.1094 L323.3594,109.1094 L326.7188,121.5 L324.2656,121.5 L323.5,118.4375 L320.2188,118.4375 L319.4688,121.5 L317.0313,121.5 L320.375,109.1094 Z "/><text fill="#000000" font-family="sans-serif" font-size="12" font-style="italic" lengthAdjust="spacingAndGlyphs" textLength="41" x="335.75" y="120.1543">Plotter</text><line style="stroke: #99BAD0; stroke-width: 1.5;" x1="307.75" x2="378.75" y1="132" y2="132"/><line style="stroke: #99BAD0; stroke-width: 1.5;" x1="307.75" x2="378.75" y1="140" y2="140"/><polygon fill="#E1EAF1" filter="url(#f1)" points="784,104,784,144.2656,948,144.2656,948,114,938,104,784,104" style="stroke: #99BAD0; stroke-width: 1.0;"/><line style="stroke: #99BAD0; stroke-width: 1.0;" x1="938" x2="938" y1="104" y2="114"/><line style="stroke: #99BAD0; stroke-width: 1.0;" x1="948" x2="938" y1="114" y2="114"/><text fill="#000000" font-family="sans-serif" font-size="13" lengthAdjust="spacingAndGlyphs" textLength="126" x="790" y="121.0669">exchangable timers</text><text fill="#000000" font-family="sans-serif" font-size="13" lengthAdjust="spacingAndGlyphs" textLength="143" x="790" y="136.1997">for measuring runtime</text><rect fill="#E1EAF1" filter="url(#f1)" height="48" style="stroke: #99BAD0; stroke-width: 1.5;" width="96" x="653" y="100"/><ellipse cx="668" cy="116" fill="#7D966E" rx="11" ry="11" style="stroke: #99BAD0; stroke-width: 1.0;"/><path d="M668.1094,111.3438 L666.9531,116.4219 L669.2813,116.4219 L668.1094,111.3438 Z M666.625,109.1094 L669.6094,109.1094 L672.9688,121.5 L670.5156,121.5 L669.75,118.4375 L666.4688,118.4375 L665.7188,121.5 L663.2813,121.5 L666.625,109.1094 Z "/><text fill="#000000" font-family="sans-serif" font-size="12" font-style="italic" lengthAdjust="spacingAndGlyphs" textLength="64" x="682" y="120.1543">TimerBase</text><line style="stroke: #99BAD0; stroke-width: 1.5;" x1="654" x2="748" y1="132" y2="132"/><line style="stroke: #99BAD0; stroke-width: 1.5;" x1="654" x2="748" y1="140" y2="140"/><polygon fill="#E1EAF1" filter="url(#f1)" points="1004.75,96.5,1004.75,151.8984,1161.75,151.8984,1161.75,106.5,1151.75,96.5,1004.75,96.5" style="stroke: #99BAD0; stroke-width: 1.0;"/><line style="stroke: #99BAD0; stroke-width: 1.0;" x1="1151.75" x2="1151.75" y1="96.5" y2="106.5"/><line style="stroke: #99BAD0; stroke-width: 1.0;" x1="1161.75" x2="1151.75" y1="106.5" y2="106.5"/><text fill="#000000" font-family="sans-serif" font-size="13" lengthAdjust="spacingAndGlyphs" textLength="136" x="1010.75" y="113.5669">implicit space solvers</text><text fill="#000000" font-family="sans-serif" font-size="13" lengthAdjust="spacingAndGlyphs" textLength="125" x="1010.75" y="128.6997">such as root finding</text><text fill="#000000" font-family="sans-serif" font-size="13" lengthAdjust="spacingAndGlyphs" textLength="68" x="1010.75" y="143.8325">algorithms</text><polygon fill="#E1EAF1" filter="url(#f1)" points="1196.75,104,1196.75,144.2656,1347.75,144.2656,1347.75,114,1337.75,104,1196.75,104" style="stroke: #99BAD0; stroke-width: 1.0;"/><line style="stroke: #99BAD0; stroke-width: 1.0;" x1="1337.75" x2="1337.75" y1="104" y2="114"/><line style="stroke: #99BAD0; stroke-width: 1.0;" x1="1347.75" x2="1337.75" y1="114" y2="114"/><text fill="#000000" font-family="sans-serif" font-size="13" lengthAdjust="spacingAndGlyphs" textLength="112" x="1202.75" y="121.0669">too many classes</text><text fill="#000000" font-family="sans-serif" font-size="13" lengthAdjust="spacingAndGlyphs" textLength="130" x="1202.75" y="136.1997">to be displayed here</text></g></svg>