<?xml version="1.0" encoding="UTF-8" standalone="no"?>
<svg
   xmlns:dc="http://purl.org/dc/elements/1.1/"
   xmlns:cc="http://creativecommons.org/ns#"
   xmlns:rdf="http://www.w3.org/1999/02/22-rdf-syntax-ns#"
   xmlns:svg="http://www.w3.org/2000/svg"
   xmlns="http://www.w3.org/2000/svg"
   xmlns:sodipodi="http://sodipodi.sourceforge.net/DTD/sodipodi-0.dtd"
   xmlns:inkscape="http://www.inkscape.org/namespaces/inkscape"
   height="300"
   version="1.1"
   viewBox="0 0 763.99996 240.00001"
   width="955"
   id="svg2"
   inkscape:version="0.48.4 r9939"
   sodipodi:docname="plugins_tree.svg">
  <metadata
     id="metadata141">
    <rdf:RDF>
      <cc:Work
         rdf:about="">
        <dc:format>image/svg+xml</dc:format>
        <dc:type
           rdf:resource="http://purl.org/dc/dcmitype/StillImage" />
      </cc:Work>
    </rdf:RDF>
  </metadata>
  <sodipodi:namedview
     pagecolor="#ffffff"
     bordercolor="#666666"
     borderopacity="1"
     objecttolerance="10"
     gridtolerance="10"
     guidetolerance="10"
     inkscape:pageopacity="0"
     inkscape:pageshadow="2"
     inkscape:window-width="1920"
     inkscape:window-height="1145"
     id="namedview139"
     showgrid="false"
     inkscape:zoom="0.7764537"
     inkscape:cx="1110.7657"
     inkscape:cy="273.25223"
     inkscape:window-x="1917"
     inkscape:window-y="-3"
     inkscape:window-maximized="1"
     inkscape:current-layer="svg2"
     fit-margin-top="0.01"
     fit-margin-left="0.01"
     fit-margin-right="0.01"
     fit-margin-bottom="0.01"
     units="px" />
  <defs
     id="defs4">
    <filter
       height="3"
       id="f1"
       width="3"
       x="-1"
       y="-1"
       color-interpolation-filters="sRGB">
      <feGaussianBlur
         result="blurOut"
         stdDeviation="2.0"
         id="feGaussianBlur7" />
      <feColorMatrix
         in="blurOut"
         result="blurOut2"
         type="matrix"
         values="0 0 0 0 0 0 0 0 0 0 0 0 0 0 0 0 0 0 .4 0"
         id="feColorMatrix9" />
      <feOffset
         dx="4.0"
         dy="4.0"
         in="blurOut2"
         result="blurOut3"
         id="feOffset11" />
      <feBlend
         in="SourceGraphic"
         in2="blurOut3"
         mode="normal"
         id="feBlend13" />
    </filter>
  </defs>
  <g
     id="g3347"
     transform="translate(-406.97857,-132.65167)">
    <g
       transform="translate(390.3623,-146.492)"
       id="g3195">
      <polygon
         id="polygon17"
         style="fill:#ffffff;stroke:#000000;stroke-width:2;filter:url(#f1)"
         points="111,46.2969 266,46.2969 266,132 22,132 22,24 22,24 104,24 "
         transform="translate(0,261)" />
      <g
         id="g3179">
        <line
           style="stroke:#000000;stroke-width:2"
           x1="22"
           x2="111"
           y1="307.29691"
           y2="307.29691"
           id="line19" />
        <text
           font-size="14"
           font-weight="bold"
           lengthAdjust="spacingAndGlyphs"
           textLength="76"
           x="25"
           y="300.99509"
           id="text21"
           style="font-size:14px;font-weight:bold;fill:#000000;font-family:sans-serif">analyzers</text>
        <polygon
           transform="translate(0,261)"
           points="239.75,60.5 158.75,60.5 158.75,60.5 158.75,115.8984 249.75,115.8984 249.75,70.5 "
           style="fill:#fbfb77;stroke:#a80036;stroke-width:1;filter:url(#f1)"
           id="polygon47" />
        <line
           style="stroke:#a80036;stroke-width:1"
           x1="239.75"
           x2="239.75"
           y1="321.5"
           y2="331.5"
           id="line49" />
        <line
           style="stroke:#a80036;stroke-width:1"
           x1="249.75"
           x2="239.75"
           y1="331.5"
           y2="331.5"
           id="line51" />
        <text
           font-size="13"
           lengthAdjust="spacingAndGlyphs"
           textLength="70"
           x="164.75"
           y="338.56689"
           id="text53"
           style="font-size:13px;fill:#000000;font-family:sans-serif">specialized</text>
        <text
           font-size="13"
           lengthAdjust="spacingAndGlyphs"
           textLength="50"
           x="164.75"
           y="353.69971"
           id="text55"
           style="font-size:13px;fill:#000000;font-family:sans-serif">solution</text>
        <text
           font-size="13"
           lengthAdjust="spacingAndGlyphs"
           textLength="61"
           x="164.75"
           y="368.83249"
           id="text57"
           style="font-size:13px;fill:#000000;font-family:sans-serif">analyzers</text>
        <rect
           height="48"
           style="fill:#fefece;stroke:#a80036;stroke-width:1.5;filter:url(#f1)"
           width="85"
           x="38.75"
           y="325"
           id="rect59" />
        <ellipse
           transform="translate(0,261)"
           cx="53.75"
           cy="80"
           rx="11"
           ry="11"
           style="fill:#a9dcdf;stroke:#a80036;stroke-width:1"
           id="ellipse61"
           sodipodi:cx="53.75"
           sodipodi:cy="80"
           sodipodi:rx="11"
           sodipodi:ry="11"
           d="m 64.75,80 c 0,6.075132 -4.924868,11 -11,11 -6.075132,0 -11,-4.924868 -11,-11 0,-6.075132 4.924868,-11 11,-11 6.075132,0 11,4.924868 11,11 z" />
        <path
           d="m 53.8594,336.3438 -1.1563,5.0781 2.3282,0 -1.1719,-5.0781 z m -1.4844,-2.2344 2.9844,0 3.3594,12.3906 -2.4532,0 -0.7656,-3.0625 -3.2812,0 -0.75,3.0625 -2.4375,0 3.3437,-12.3906 z"
           id="path63"
           inkscape:connector-curvature="0" />
        <text
           font-size="12"
           font-style="italic"
           lengthAdjust="spacingAndGlyphs"
           textLength="53"
           x="67.75"
           y="345.1543"
           id="text65"
           style="font-size:12px;font-style:italic;fill:#000000;font-family:sans-serif">Analyzer</text>
        <line
           style="stroke:#a80036;stroke-width:1.5"
           x1="39.75"
           x2="122.75"
           y1="357"
           y2="357"
           id="line67" />
        <line
           style="stroke:#a80036;stroke-width:1.5"
           x1="39.75"
           x2="122.75"
           y1="365"
           y2="365"
           id="line69" />
      </g>
    </g>
    <g
       transform="translate(382.11969,-146.492)"
       id="g3248">
      <polygon
         id="polygon23"
         style="fill:#ffffff;stroke:#000000;stroke-width:2;filter:url(#f1)"
         points="365,46.2969 613,46.2969 613,132 290,132 290,24 290,24 358,24 "
         transform="translate(0,261)" />
      <line
         id="line25"
         y2="307.29691"
         y1="307.29691"
         x2="365"
         x1="290"
         style="stroke:#000000;stroke-width:2" />
      <text
         style="font-size:14px;font-weight:bold;fill:#000000;font-family:sans-serif"
         id="text27"
         y="300.99509"
         x="293"
         textLength="62"
         lengthAdjust="spacingAndGlyphs"
         font-weight="bold"
         font-size="14">plotters</text>
      <polygon
         id="polygon71"
         style="fill:#fbfb77;stroke:#a80036;stroke-width:1;filter:url(#f1)"
         points="587,60.5 415,60.5 415,60.5 415,115.8984 597,115.8984 597,70.5 "
         transform="translate(0,261)" />
      <line
         id="line73"
         y2="331.5"
         y1="321.5"
         x2="587"
         x1="587"
         style="stroke:#a80036;stroke-width:1" />
      <line
         id="line75"
         y2="331.5"
         y1="331.5"
         x2="587"
         x1="597"
         style="stroke:#a80036;stroke-width:1" />
      <text
         style="font-size:13px;fill:#000000;font-family:sans-serif"
         id="text77"
         y="338.56689"
         x="421"
         textLength="161"
         lengthAdjust="spacingAndGlyphs"
         font-size="13">specialized plotters using</text>
      <text
         style="font-size:13px;fill:#000000;font-family:sans-serif"
         id="text79"
         y="353.69971"
         x="421"
         textLength="123"
         lengthAdjust="spacingAndGlyphs"
         font-size="13">unified interface for</text>
      <text
         style="font-size:13px;fill:#000000;font-family:sans-serif"
         id="text81"
         y="368.83249"
         x="421"
         textLength="160"
         lengthAdjust="spacingAndGlyphs"
         font-size="13">maximum exchangability</text>
      <rect
         id="rect83"
         y="325"
         x="306.75"
         width="73"
         style="fill:#fefece;stroke:#a80036;stroke-width:1.5;filter:url(#f1)"
         height="48" />
      <ellipse
         d="m 332.75,80 c 0,6.075132 -4.92487,11 -11,11 -6.07513,0 -11,-4.924868 -11,-11 0,-6.075132 4.92487,-11 11,-11 6.07513,0 11,4.924868 11,11 z"
         sodipodi:ry="11"
         sodipodi:rx="11"
         sodipodi:cy="80"
         sodipodi:cx="321.75"
         id="ellipse85"
         style="fill:#a9dcdf;stroke:#a80036;stroke-width:1"
         ry="11"
         rx="11"
         cy="80"
         cx="321.75"
         transform="translate(0,261)" />
      <path
         inkscape:connector-curvature="0"
         id="path87"
         d="m 321.8594,336.3438 -1.1563,5.0781 2.3282,0 -1.1719,-5.0781 z m -1.4844,-2.2344 2.9844,0 3.3594,12.3906 -2.4532,0 -0.7656,-3.0625 -3.2812,0 -0.75,3.0625 -2.4375,0 3.3437,-12.3906 z" />
      <text
         style="font-size:12px;font-style:italic;fill:#000000;font-family:sans-serif"
         id="text89"
         y="345.1543"
         x="335.75"
         textLength="41"
         lengthAdjust="spacingAndGlyphs"
         font-style="italic"
         font-size="12">Plotter</text>
      <line
         id="line91"
         y2="357"
         y1="357"
         x2="378.75"
         x1="307.75"
         style="stroke:#a80036;stroke-width:1.5" />
      <line
         id="line93"
         y2="365"
         y1="365"
         x2="378.75"
         x1="307.75"
         style="stroke:#a80036;stroke-width:1.5" />
    </g>
    <g
       transform="translate(-224.742,-28.004579)"
       id="g3265">
      <polygon
         id="polygon29"
         style="fill:#ffffff;stroke:#000000;stroke-width:2;filter:url(#f1)"
         points="700,50.2969 964,50.2969 964,128 637,128 637,28 637,28 693,28 "
         transform="translate(0,261)" />
      <line
         id="line31"
         y2="311.29691"
         y1="311.29691"
         x2="700"
         x1="637"
         style="stroke:#000000;stroke-width:2" />
      <text
         style="font-size:14px;font-weight:bold;fill:#000000;font-family:sans-serif"
         id="text33"
         y="304.99509"
         x="640"
         textLength="50"
         lengthAdjust="spacingAndGlyphs"
         font-weight="bold"
         font-size="14">timers</text>
      <polygon
         id="polygon35"
         style="fill:#ffffff;stroke:#000000;stroke-width:2;filter:url(#f1)"
         points="1121,46.2969 1178,46.2969 1178,132 988,132 988,24 988,24 1114,24 "
         transform="translate(0,261)" />
      <line
         id="line37"
         y2="307.29691"
         y1="307.29691"
         x2="1121"
         x1="988"
         style="stroke:#000000;stroke-width:2" />
      <text
         style="font-size:14px;font-weight:bold;fill:#000000;font-family:sans-serif"
         id="text39"
         y="300.99509"
         x="991"
         textLength="120"
         lengthAdjust="spacingAndGlyphs"
         font-weight="bold"
         font-size="14">implicit_solvers</text>
      <polygon
         id="polygon41"
         style="fill:#ffffff;stroke:#000000;stroke-width:2;filter:url(#f1)"
         points="1284,54.2969 1386,54.2969 1386,124 1202,124 1202,32 1202,32 1277,32 "
         transform="translate(0,261)" />
      <line
         id="line43"
         y2="315.29691"
         y1="315.29691"
         x2="1284"
         x1="1202"
         style="stroke:#000000;stroke-width:2" />
      <text
         style="font-size:14px;font-weight:bold;fill:#000000;font-family:sans-serif"
         id="text45"
         y="308.99509"
         x="1205"
         textLength="69"
         lengthAdjust="spacingAndGlyphs"
         font-weight="bold"
         font-size="14">multigrid</text>
      <polygon
         id="polygon95"
         style="fill:#fbfb77;stroke:#a80036;stroke-width:1;filter:url(#f1)"
         points="938,68 784,68 784,68 784,108.2656 948,108.2656 948,78 "
         transform="translate(0,261)" />
      <line
         id="line97"
         y2="339"
         y1="329"
         x2="938"
         x1="938"
         style="stroke:#a80036;stroke-width:1" />
      <line
         id="line99"
         y2="339"
         y1="339"
         x2="938"
         x1="948"
         style="stroke:#a80036;stroke-width:1" />
      <text
         style="font-size:13px;fill:#000000;font-family:sans-serif"
         id="text101"
         y="346.06689"
         x="790"
         textLength="126"
         lengthAdjust="spacingAndGlyphs"
         font-size="13">exchangable timers</text>
      <text
         style="font-size:13px;fill:#000000;font-family:sans-serif"
         id="text103"
         y="361.19971"
         x="790"
         textLength="143"
         lengthAdjust="spacingAndGlyphs"
         font-size="13">for measuring runtime</text>
      <rect
         id="rect105"
         y="325"
         x="653"
         width="96"
         style="fill:#fefece;stroke:#a80036;stroke-width:1.5;filter:url(#f1)"
         height="48" />
      <ellipse
         d="m 679,80 c 0,6.075132 -4.92487,11 -11,11 -6.07513,0 -11,-4.924868 -11,-11 0,-6.075132 4.92487,-11 11,-11 6.07513,0 11,4.924868 11,11 z"
         sodipodi:ry="11"
         sodipodi:rx="11"
         sodipodi:cy="80"
         sodipodi:cx="668"
         id="ellipse107"
         style="fill:#a9dcdf;stroke:#a80036;stroke-width:1"
         ry="11"
         rx="11"
         cy="80"
         cx="668"
         transform="translate(0,261)" />
      <path
         inkscape:connector-curvature="0"
         id="path109"
         d="m 668.1094,336.3438 -1.1563,5.0781 2.3282,0 -1.1719,-5.0781 z m -1.4844,-2.2344 2.9844,0 3.3594,12.3906 -2.4532,0 -0.7656,-3.0625 -3.2812,0 -0.75,3.0625 -2.4375,0 3.3437,-12.3906 z" />
      <text
         style="font-size:12px;font-style:italic;fill:#000000;font-family:sans-serif"
         id="text111"
         y="345.1543"
         x="682"
         textLength="64"
         lengthAdjust="spacingAndGlyphs"
         font-style="italic"
         font-size="12">TimerBase</text>
      <line
         id="line113"
         y2="357"
         y1="357"
         x2="748"
         x1="654"
         style="stroke:#a80036;stroke-width:1.5" />
      <line
         id="line115"
         y2="365"
         y1="365"
         x2="748"
         x1="654"
         style="stroke:#a80036;stroke-width:1.5" />
      <polygon
         id="polygon117"
         style="fill:#fbfb77;stroke:#a80036;stroke-width:1;filter:url(#f1)"
         points="1151.75,60.5 1004.75,60.5 1004.75,60.5 1004.75,115.8984 1161.75,115.8984 1161.75,70.5 "
         transform="translate(0,261)" />
      <line
         id="line119"
         y2="331.5"
         y1="321.5"
         x2="1151.75"
         x1="1151.75"
         style="stroke:#a80036;stroke-width:1" />
      <line
         id="line121"
         y2="331.5"
         y1="331.5"
         x2="1151.75"
         x1="1161.75"
         style="stroke:#a80036;stroke-width:1" />
      <text
         style="font-size:13px;fill:#000000;font-family:sans-serif"
         id="text123"
         y="338.56689"
         x="1010.75"
         textLength="136"
         lengthAdjust="spacingAndGlyphs"
         font-size="13">implicit space solvers</text>
      <text
         style="font-size:13px;fill:#000000;font-family:sans-serif"
         id="text125"
         y="353.69971"
         x="1010.75"
         textLength="125"
         lengthAdjust="spacingAndGlyphs"
         font-size="13">such as root finding</text>
      <text
         style="font-size:13px;fill:#000000;font-family:sans-serif"
         id="text127"
         y="368.83249"
         x="1010.75"
         textLength="68"
         lengthAdjust="spacingAndGlyphs"
         font-size="13">algorithms</text>
      <polygon
         id="polygon129"
         style="fill:#fbfb77;stroke:#a80036;stroke-width:1;filter:url(#f1)"
         points="1359.75,68 1218.75,68 1218.75,68 1218.75,108.2656 1369.75,108.2656 1369.75,78 "
         transform="translate(0,261)" />
      <line
         id="line131"
         y2="339"
         y1="329"
         x2="1359.75"
         x1="1359.75"
         style="stroke:#a80036;stroke-width:1" />
      <line
         id="line133"
         y2="339"
         y1="339"
         x2="1359.75"
         x1="1369.75"
         style="stroke:#a80036;stroke-width:1" />
      <text
         style="font-size:13px;fill:#000000;font-family:sans-serif"
         id="text135"
         y="346.06689"
         x="1224.75"
         textLength="112"
         lengthAdjust="spacingAndGlyphs"
         font-size="13">too many classes</text>
      <text
         style="font-size:13px;fill:#000000;font-family:sans-serif"
         id="text137"
         y="361.19971"
         x="1224.75"
         textLength="130"
         lengthAdjust="spacingAndGlyphs"
         font-size="13">to be displayed here</text>
    </g>
  </g>
</svg>
